<svg width="80" height="80" viewBox="0 0 80 80" fill="none" xmlns="http://www.w3.org/2000/svg">
<g clip-path="url(#clip0_619_301)">
<path d="M57.856 61.1577H22.1438C21.4966 61.1577 20.9719 61.6823 20.9719 62.3295C20.9719 62.9767 21.4966 63.5014 22.1438 63.5014H57.8561C58.5033 63.5014 59.028 62.9767 59.028 62.3295C59.028 61.6823 58.5032 61.1577 57.856 61.1577Z" fill="#EF33B4"/>
<path d="M57.856 66.5217H22.1438C21.4966 66.5217 20.9719 67.0464 20.9719 67.6936C20.9719 68.3408 21.4966 68.8655 22.1438 68.8655H57.8561C58.5033 68.8655 59.028 68.3408 59.028 67.6936C59.028 67.0464 58.5032 66.5217 57.856 66.5217Z" fill="#EF33B4"/>
<path d="M22.1438 26.0734C21.4966 26.0734 20.9719 26.5981 20.9719 27.2453V55.5242C20.9719 56.1714 21.4966 56.6961 22.1438 56.6961H57.8561C58.4778 56.6961 58.9864 56.2117 59.0255 55.5998C59.0328 55.5756 59.0369 55.5505 59.0369 55.5242V31.3683C59.0369 30.1811 58.071 29.2153 56.8838 29.2153H53.215C52.0278 29.2153 51.0621 30.1811 51.0621 31.3683V36.5731C51.0621 37.2203 51.5868 37.745 52.2339 37.745C52.8811 37.745 53.4058 37.2203 53.4058 36.5731V31.5591H56.6933V54.3523H53.4058V42.0256C53.4058 41.3784 52.8811 40.8537 52.2339 40.8537C51.5868 40.8537 51.0621 41.3784 51.0621 42.0256V54.3523H46.4327V40.1526C46.4327 38.9655 45.4668 37.9997 44.2796 37.9997H40.6108C39.4236 37.9997 38.4577 38.9655 38.4577 40.1526V54.3523H34.1446V48.277C34.1446 47.0898 33.1786 46.1239 31.9915 46.1239H28.3227C27.1355 46.1239 26.1696 47.0898 26.1696 48.277V54.3523H23.3157V27.2453C23.3157 26.5981 22.791 26.0734 22.1438 26.0734ZM40.8014 40.3433H44.0889V54.3523H40.8014V40.3433ZM28.5132 48.4676H31.8007V54.3523H28.5132V48.4676Z" fill="#EF33B4"/>
<path d="M29.8667 11.0394H50.1329C52.0591 11.0394 53.6263 9.47219 53.6263 7.54594V3.49344C53.6263 1.56719 52.0593 0 50.133 0H29.8667C27.9405 0 26.3733 1.56719 26.3733 3.49344V7.54594C26.3734 9.47219 27.9405 11.0394 29.8667 11.0394ZM28.7172 3.49344C28.7172 2.85953 29.233 2.34375 29.8669 2.34375H50.133C50.7669 2.34375 51.2827 2.85953 51.2827 3.49344V7.54594C51.2827 8.18 50.7669 8.69563 50.133 8.69563H29.8667C29.2328 8.69563 28.717 8.17984 28.717 7.54594V3.49344H28.7172Z" fill="#EF33B4"/>
<path d="M64.9298 4.34784H57.9072C57.26 4.34784 56.7353 4.87253 56.7353 5.51971C56.7353 6.1669 57.26 6.69159 57.9072 6.69159H64.9298C66.4368 6.69159 67.6628 7.91768 67.6628 9.42456V74.9233C67.6628 76.4303 66.4367 77.6563 64.9298 77.6563H15.0701C13.5631 77.6563 12.3372 76.4302 12.3372 74.9233V9.42456C12.3372 7.91753 13.5633 6.69159 15.0701 6.69159H22.0928C22.74 6.69159 23.2647 6.1669 23.2647 5.51971C23.2647 4.87253 22.74 4.34784 22.0928 4.34784H15.0701C12.2708 4.34784 9.99341 6.62534 9.99341 9.42456V74.9233C9.99341 77.7227 12.2709 80 15.0701 80H64.9298C67.7292 80 70.0065 77.7225 70.0065 74.9233V9.42456C70.0065 6.62518 67.729 4.34784 64.9298 4.34784Z" fill="#EF33B4"/>
</g>
<defs>
<clipPath id="clip0_619_301">
<rect width="80" height="80" fill="white"/>
</clipPath>
</defs>
</svg>
